<svg width="256" height="256" viewBox="0 0 128 128" xmlns="http://www.w3.org/2000/svg" role="img" aria-label="PostPilot">
  <defs>
    <linearGradient id="g" x1="0%" y1="0%" x2="100%" y2="0%">
      <stop offset="0%" stop-color="#7c3aed"/>
      <stop offset="100%" stop-color="#22d3ee"/>
    </linearGradient>
  </defs>
  <rect rx="24" width="128" height="128" fill="url(#g)"/>
  <path fill="#0b1023" d="M88 36H40a8 8 0 0 0-8 8v40a8 8 0 0 0 8 8h48a8 8 0 0 0 8-8V44a8 8 0 0 0-8-8zm-12 32H68v12a8 8 0 0 1-16 0V68H40a8 8 0 0 1 0-16h12V40a8 8 0 0 1 16 0v12h12a8 8 0 0 1 0 16z"/>
</svg>


